#!OML:ASF E:/inclinewalkrobotboard/Project1/Captureday1/Session1/subject1.ASF
:FULLY-SPECIFIED
:DEGREES
388
root 0 0 0 -1.6684836390848374 -5.21683804319181 -7.162432038830725
lowerback 10.083400617288326 2.4246508391585193 5.4039130652032465
upperback 0.023066606558843905 3.9381176139350593 1.3980688354584925
thorax -5.553306253090343 1.812451901666157 -2.1346091872199766
lowerneck -14.498771591672039 -3.3131335085136002 -0.8961130125268711
upperneck 17.04252533271846 -4.57469010174982 1.4176646490888962
head 7.880356768893107 -2.1254344041014477 0.12212160663057303
rclavicle -1.726529164570831E-16 -6.917968843819341E-17
rhumerus -19.541296550671365 -7.154141755356551 -67.28611435187767
rradius 60.957767051772294
rwrist -8.253345861234488
rhand -13.303637892248073 -9.296184328866474
rfingers 7.125019999999862
rthumb 12.828599693621362 -38.5278208173693
lclavicle -8.586018825218746E-16 -4.114202246673723E-16
lhumerus -40.39570355182576 0.30785326217081044 83.35966139133673
lradius 39.28403083131356
lwrist 2.363270596944548
lhand -18.63357780669757 -1.59180563725951
lfingers 7.125019999999862
lthumb 7.5472890968633095 27.882372958561604
rfemur -5.896979291706394 2.831767984170388 15.562062461964523
rtibia 24.01400191227077
rfoot -3.758066334308613 -3.043642691208789
rtoes 2.4942877598449327
lfemur -9.882731212076859 -2.870461791492047 -14.831261049820261
ltibia 29.537110550556054
lfoot -13.651138952246294 3.5184602489356593
ltoes -24.53094560239938
389
root 0 0 0 -1.66734542691355 -5.179187162044115 -7.104037938033253
lowerback 10.08337689873431 2.4029272843808105 5.340564132746445
upperback 0.022572370809229192 3.9009093807663393 1.3952963944777
thorax -5.554360289133333 1.7958136238974016 -2.0976977754516266
lowerneck -14.49150992587114 -3.3080809188291473 -0.898826494026336
upperneck 17.026475910939865 -4.566958784749714 1.4195087984072947
head 7.877077474535666 -2.1218148627615765 0.12429252311211936
rclavicle -1.7366316051281586E-16 -7.155905021969798E-17
rhumerus -19.57210882913494 -7.186327765528227 -67.31803358474033
rradius 60.85862852740038
rwrist -8.217320264977293
rhand -13.316396108449325 -9.205177790866735
rfingers 7.1250199999998625
rthumb 12.816160093757073 -38.438359690619286
lclavicle -8.573824166251426E-16 -4.120606742189853E-16
lhumerus -40.36005527177585 0.3069733201831873 83.35621202215546
lradius 39.23359824756781
lwrist 2.37781161630033
lhand -18.670712350484305 -1.4770958609189275
lfingers 7.1250199999998625
lthumb 7.5116790185901925 27.999339875521063
rfemur -5.8421700894691355 2.8341400103143357 15.44268395082923
rtibia 23.607699010472615
rfoot -3.842826169091158 -3.047669713709338
rtoes 2.3646721996946884
lfemur -8.717900837316147 -3.054693730831169 -15.322445841121217
ltibia 28.21452540855431
lfoot -14.372671411648023 3.813637411953317
ltoes -24.88513966878887
390
root 0 0 0 -1.6685884194186724 -5.12642377520222 -7.019262039964282
lowerback 10.084064661762016 2.371057384933577 5.250563493860101
upperback 0.023036555521224078 3.8469824023803385 1.3922975502873367
thorax -5.554629705361446 1.7716315532563072 -2.0437796969818756
lowerneck -14.487901994159058 -3.301007959999315 -0.9049901878124621
upperneck 17.014821670797737 -4.5554085459543305 1.4195755749402785
head 7.875501160055726 -2.1166929025406223 0.1267973130875074
rclavicle -1.7543316785397135E-16 -7.413132067568596E-17
rhumerus -19.612714764298488 -7.229235012633828 -67.35962368709336
rradius 60.728257872745566
rwrist -8.169488557201163
rhand -13.333159234479544 -9.08512974596872
rfingers 7.1250199999998625
rthumb 12.799796758993034 -38.32038315414623
lclavicle -8.581774606408834E-16 -4.129743721772353E-16
lhumerus -40.31722284922988 0.30812196397973113 83.35193877049291
lradius 39.16765716099905
lwrist 2.394854419030775
lhand -18.716877214362317 -1.3340100823486178
lfingers 7.125019999999864
lthumb 7.467326225218998 28.145808346147795
rfemur -5.995965557977691 2.721884664868977 15.180267285594898
rtibia 23.871872507721932
rfoot -3.5056460568896513 -2.9957445688976674
rtoes 2.482223282815948
lfemur -7.438286807985955 -3.245307194387367 -15.906629183752184
ltibia 26.810510922418317
lfoot -15.092726140050196 4.068286702199968
ltoes -25.067898190094823
391
root 0 0 0 -1.671073306169325 -5.049343257297748 -6.8944931827562055
lowerback 10.084924695359085 2.324378532443194 5.117875964623322
upperback 0.02391840574630444 3.7682281497207684 1.3874533703648644
thorax -5.554501411882466 1.736208696471678 -1.9644632348151958
lowerneck -14.481535129423133 -3.29038317792475 -0.9138546393975339
upperneck 16.99931222609962 -4.538137630755667 1.4192285498058617
head 7.872550736553165 -2.1091248956259507 0.13041002081690029
rclavicle -1.7791671474124252E-16 -7.679817612752387E-17
rhumerus -19.66232458042859 -7.282649892386202 -67.41087787536158
rradius 60.566873555641905
rwrist -8.110317080470752
rhand -13.353992344572504 -8.935782640477969
rfingers 7.125019999999863
rthumb 12.779418993281336 -38.17370523721745
lclavicle -8.592767038118244E-16 -4.133515342550134E-16
lhumerus -40.25774595757512 0.3093584864262437 83.34596444844942
lradius 39.07665218065913
lwrist 2.4188738825742746
lhand -18.78117188478742 -1.1353445052303126
lfingers 7.125019999999865
lthumb 7.405706046977374 28.349125975277694
rfemur -6.385468521161174 2.549025817435846 14.88517679960216
rtibia 24.64559456157771
rfoot -2.940205780025903 -2.9488541813577007
rtoes 2.7462999678564506
lfemur -5.962327595469406 -3.4569560428055124 -16.612565570474477
ltibia 25.223459437320205
lfoot -15.8711579311498 4.31262378973081
ltoes -25.12883609247706
392
root 0 0 0 -1.6732615742986217 -4.930348421596777 -6.703958753134637
lowerback 10.084890891583466 2.2532985064878592 4.9126710358417265
upperback 0.024641922568333308 3.648193455622888 1.3785272690422508
thorax -5.554348268951031 1.6821124679768495 -1.8431524610112813
lowerneck -14.463622718718893 -3.2732426170331186 -0.9248758623534189
upperneck 16.96829347107625 -4.5110724761180325 1.420040553984113
head 7.863829004599076 -2.0971984699993262 0.13629022960368908
rclavicle -1.8016446372192177E-16 -7.931078931665431E-17
rhumerus -19.70838791862996 -7.333408369873487 -67.45883906017009
rradius 60.41482490431955
rwrist -8.054640434767563
rhand -13.373675882493199 -8.794274076911904
rfingers 7.125019999999864
rthumb 12.760086752959767 -38.03481622046469
lclavicle -8.585986541063973E-16 -4.1230704211926504E-16
lhumerus -40.1756506343854 0.30837225982370625 83.33771477528195
lradius 38.957265455834694
lwrist 2.4529854248358687
lhand -18.868653039714772 -0.866258368438034
lfingers 7.125019999999867
lthumb 7.322162583138587 28.623706458779022
rfemur -6.948831934924194 2.382773744682499 14.652995943953549
rtibia 25.585899038683035
rfoot -2.395919013864947 -2.9573360957625345
rtoes 3.0123606685854334
lfemur -4.260286197213395 -3.695691349563341 -17.44302930957017
ltibia 23.416648630341065
lfoot -16.736208949490315 4.564855716010397
ltoes -25.117143012371837
